<svg xmlns="http://www.w3.org/2000/svg" viewBox="0 0 25 25"><defs><style>.cls-1{fill:#fff;}</style></defs><g id="Layer_2" data-name="Layer 2"><g id="Layer_1-2" data-name="Layer 1"><path class="cls-1" d="M13.61,21.21c0,.87,0,1.73,0,2.59a1.11,1.11,0,0,1-1.48,1.13,1.07,1.07,0,0,1-.73-1.05c0-1.79,0-3.57,0-5.35a1.12,1.12,0,0,1,1.12-1.12,1.14,1.14,0,0,1,1.09,1.19C13.62,19.47,13.61,20.34,13.61,21.21Z"/><path class="cls-1" d="M11.4,3.77V1.12A1.1,1.1,0,0,1,12.18.05a1,1,0,0,1,1.2.41,1.37,1.37,0,0,1,.22.67c0,1.78,0,3.55,0,5.32a1.1,1.1,0,0,1-1.1,1.13,1.11,1.11,0,0,1-1.1-1.14Z"/><path class="cls-1" d="M3.77,13.6H1.13a1.1,1.1,0,0,1-1.08-.78A1,1,0,0,1,.48,11.6a1.48,1.48,0,0,1,.68-.19c1.76,0,3.51,0,5.27,0a1.1,1.1,0,0,1,1.15,1.1,1.11,1.11,0,0,1-1.16,1.1Z"/><path class="cls-1" d="M21.22,13.6H18.6a1.11,1.11,0,0,1-1.14-1.39,1.12,1.12,0,0,1,1.19-.81h5.13l.33,0a1.08,1.08,0,0,1,0,2.13,4,4,0,0,1-.77,0Z"/><path class="cls-1" d="M4.49,3.28a3,3,0,0,1,.73.4Q7.13,5.54,9,7.45A1.09,1.09,0,1,1,7.46,9C6.19,7.75,4.92,6.48,3.66,5.21A1.07,1.07,0,0,1,3.45,4a1,1,0,0,1,1-.62Z"/><path class="cls-1" d="M4.45,21.65a1,1,0,0,1-1-.63,1.05,1.05,0,0,1,.14-1.15c.06-.06.11-.13.17-.18C5,18.48,6.17,17.27,7.38,16.07a1.1,1.1,0,0,1,1.53-.18,1.08,1.08,0,0,1,.18,1.55.8.8,0,0,1-.15.17L5.3,21.25A1.11,1.11,0,0,1,4.45,21.65Z"/><path class="cls-1" d="M16.76,9.33a1,1,0,0,1-1-.64,1,1,0,0,1,.16-1.14c.29-.33.6-.63.91-.94l2.89-2.89a1.11,1.11,0,0,1,1.77.14,1.08,1.08,0,0,1-.08,1.25l-.12.15C20.06,6.49,18.83,7.73,17.6,9A1.13,1.13,0,0,1,16.76,9.33Z"/><path class="cls-1" d="M21.66,20.58a1,1,0,0,1-.61,1,1.05,1.05,0,0,1-1.15-.12c-.07-.05-.14-.12-.21-.18l-3.62-3.62a1.1,1.1,0,0,1,1.34-1.75,1.45,1.45,0,0,1,.18.17l3.69,3.68A1.15,1.15,0,0,1,21.66,20.58Z"/></g></g></svg>